<?xml version="1.0" encoding="UTF-8"?>
<svg xmlns="http://www.w3.org/2000/svg" xmlns:xlink="http://www.w3.org/1999/xlink" width="194pt" height="194pt" viewBox="0 0 194 194" version="1.1">
<g id="surface1">
<path style=" stroke:none;fill-rule:evenodd;fill:rgb(100%,100%,100%);fill-opacity:1;" d="M 0.257813 0.675781 L 193.015625 0.675781 L 193.015625 193.433594 L 0.257813 193.433594 L 0.257813 0.675781 "/>
<path style=" stroke:none;fill-rule:evenodd;fill:rgb(13.699341%,12.199402%,12.5%);fill-opacity:1;" d="M 21.859375 103.210938 L 21.859375 123.742188 L 23.257813 123.742188 L 23.257813 103.347656 L 27.515625 70.367188 L 26.113281 70.367188 Z M 160.992188 118.085938 C 158.753906 118.085938 156.921875 116.359375 156.921875 114.230469 C 156.921875 112.074219 158.484375 110.296875 160.722656 110.296875 L 167.1875 110.296875 L 167.1875 107.820313 L 160.453125 107.820313 C 158.378906 107.820313 156.921875 106.257813 156.921875 104.316406 C 156.921875 102.375 158.644531 100.761719 160.695313 100.761719 L 167.1875 100.761719 L 167.1875 98.28125 L 160.695313 98.28125 C 157.246094 98.253906 154.445313 101.054688 154.445313 104.449219 C 154.445313 106.363281 155.332031 108.089844 156.652344 109.191406 C 155.277344 110.378906 154.445313 112.128906 154.445313 114.042969 C 154.445313 117.625 157.40625 120.5625 160.992188 120.5625 L 167.1875 120.5625 L 167.1875 118.085938 Z M 115.027344 109.945313 L 120.144531 109.945313 L 120.144531 105.878906 C 120.144531 103.078125 117.855469 100.761719 115.027344 100.761719 C 112.171875 100.761719 109.878906 103.078125 109.878906 105.878906 L 109.878906 109.945313 Z M 115.027344 98.28125 C 119.175781 98.28125 122.625 101.703125 122.625 105.878906 L 122.625 120.5625 L 120.144531 120.5625 L 120.144531 112.425781 L 109.878906 112.425781 L 109.878906 120.5625 L 107.429688 120.5625 L 107.429688 105.878906 C 107.429688 101.703125 110.851563 98.28125 115.027344 98.28125 Z M 181.84375 118.085938 C 179.636719 118.085938 177.804688 116.359375 177.804688 114.230469 L 177.804688 98.28125 L 175.324219 98.28125 L 175.324219 114.042969 C 175.324219 117.625 178.289063 120.5625 181.84375 120.5625 L 184.511719 120.5625 L 184.511719 118.085938 Z M 146.683594 114.203125 C 146.683594 112.398438 145.742188 110.753906 144.3125 109.8125 C 145.769531 108.628906 146.683594 106.820313 146.683594 104.828125 C 146.683594 101.21875 143.746094 98.28125 140.136719 98.28125 L 131.109375 98.28125 L 131.109375 120.5625 L 133.589844 120.5625 L 133.589844 100.761719 L 140.054688 100.785156 C 142.371094 100.785156 144.203125 102.59375 144.203125 104.828125 C 144.203125 107.0625 142.371094 108.894531 140.136719 108.894531 L 134.992188 108.894531 L 134.992188 111.375 L 141.378906 111.375 C 142.9375 111.375 144.203125 112.640625 144.203125 114.203125 L 144.203125 120.5625 L 146.683594 120.5625 Z M 43.386719 123.742188 L 41.902344 123.742188 L 35.222656 101.488281 L 46.671875 70.367188 L 48.179688 70.367188 L 36.703125 101.566406 Z M 45.757813 123.742188 L 47.238281 123.742188 L 39.210938 101.675781 L 52.574219 70.367188 L 51.035156 70.367188 L 37.699219 101.566406 Z M 49.5 123.742188 L 57.585938 123.742188 C 60.117188 123.742188 62.164063 121.695313 62.164063 119.160156 L 62.164063 74.949219 C 62.164063 72.414063 60.117188 70.367188 57.585938 70.367188 L 55.023438 70.367188 L 40.476563 101.757813 Z M 42.738281 70.367188 L 44.246094 70.367188 L 34.199219 101.515625 L 39.640625 123.742188 L 38.210938 123.742188 L 32.742188 101.40625 Z M 94.925781 108.007813 C 96.894531 109.355469 98.214844 111.617188 98.214844 114.203125 L 98.214844 120.210938 L 95.734375 120.210938 L 95.734375 114.554688 C 95.734375 111.617188 93.363281 109.246094 90.425781 109.246094 L 86.222656 109.246094 L 86.222656 120.5625 L 83.746094 120.5625 L 83.746094 98.28125 L 86.222656 98.28125 L 86.222656 106.769531 L 90.425781 106.769531 C 93.363281 106.769531 95.734375 104.398438 95.734375 101.460938 L 95.734375 98.28125 L 98.214844 98.28125 L 98.214844 101.835938 C 98.214844 104.371094 96.921875 106.660156 94.925781 108.007813 Z M 40.019531 70.367188 L 38.5625 70.367188 L 29.941406 101.136719 L 34.117188 123.742188 L 35.542969 123.742188 L 31.394531 101.136719 Z M 36.03125 70.367188 L 34.574219 70.367188 L 27.460938 100.867188 L 29.886719 123.742188 L 31.289063 123.742188 L 28.890625 100.867188 Z M 31.71875 70.367188 L 30.292969 70.367188 L 24.742188 100.867188 L 25.792969 123.742188 L 27.191406 123.742188 L 26.167969 100.867188 Z M 23.609375 70.367188 L 13.34375 70.367188 C 10.8125 70.367188 8.761719 72.414063 8.761719 74.949219 L 8.761719 119.160156 C 8.761719 121.695313 10.8125 123.742188 13.34375 123.742188 L 19.003906 123.742188 L 23.609375 70.367188 "/>
</g>
</svg>
